<?xml version="1.0" encoding="UTF-8" standalone="no"?>
<!-- Created with Inkscape (http://www.inkscape.org/) -->

<svg
   xmlns:dc="http://purl.org/dc/elements/1.1/"
   xmlns:cc="http://creativecommons.org/ns#"
   xmlns:rdf="http://www.w3.org/1999/02/22-rdf-syntax-ns#"
   xmlns:svg="http://www.w3.org/2000/svg"
   xmlns="http://www.w3.org/2000/svg"
   xmlns:sodipodi="http://sodipodi.sourceforge.net/DTD/sodipodi-0.dtd"
   xmlns:inkscape="http://www.inkscape.org/namespaces/inkscape"
   id="svg2"
   version="1.1"
   inkscape:version="0.48.4 r9939"
   width="511.5609"
   height="114.1324"
   xml:space="preserve"
   sodipodi:docname="histogrammar-logo-paths.pdf"><metadata
     id="metadata8"><rdf:RDF><cc:Work
         rdf:about=""><dc:format>image/svg+xml</dc:format><dc:type
           rdf:resource="http://purl.org/dc/dcmitype/StillImage" /><dc:title></dc:title></cc:Work></rdf:RDF></metadata><defs
     id="defs6" /><sodipodi:namedview
     pagecolor="#ffffff"
     bordercolor="#666666"
     borderopacity="1"
     objecttolerance="10"
     gridtolerance="10"
     guidetolerance="10"
     inkscape:pageopacity="0"
     inkscape:pageshadow="2"
     inkscape:window-width="1360"
     inkscape:window-height="715"
     id="namedview4"
     showgrid="false"
     inkscape:zoom="1.6615812"
     inkscape:cx="255.78046"
     inkscape:cy="57.0662"
     inkscape:window-x="0"
     inkscape:window-y="0"
     inkscape:window-maximized="0"
     inkscape:current-layer="g10" /><g
     id="g10"
     inkscape:groupmode="layer"
     inkscape:label="histogrammar-logo-paths"
     transform="matrix(1.25,0,0,-1.25,0,114.1324)"><g
       id="g12"><path
         d="M 36.57,60.325 C 36.57,66.142 33.402,69.482 28.043,69.482 C 23.84,69.482 21.246,67.525 17.621,65.103 L 17.621,82.962 L 17.215,83.306 L 8.23,81.865 L 8.23,80.427 L 10.418,80.138 C 11.918,79.907 12.262,79.618 12.262,77.544 L 12.262,45.579 C 12.32,42.755 12.031,42.525 8,42.236 L 8,40.568 L 21.996,40.568 L 21.996,42.236 C 18.023,42.525 17.676,42.755 17.676,45.579 L 17.676,59.056 C 17.676,60.497 17.734,61.302 18.195,62.165 C 19.406,64.47 22.055,66.372 25.105,66.372 C 29.023,66.372 31.156,64.181 31.156,59.173 L 31.156,45.579 C 31.156,42.755 30.867,42.525 26.836,42.236 L 26.836,40.568 L 40.891,40.568 L 40.891,42.236 C 36.914,42.525 36.57,42.755 36.57,45.579 L 36.57,60.325"
         style="fill:#000000;fill-opacity:1;fill-rule:nonzero;stroke:none"
         id="path14" /><path
         d="M 43.91,68.04 L 43.91,66.603 L 46.098,66.314 C 47.594,66.083 47.941,65.794 47.941,63.72 L 47.941,45.579 C 47.941,42.642 47.77,42.525 43.621,42.236 L 43.621,40.568 L 57.676,40.568 L 57.676,42.236 C 53.586,42.525 53.355,42.642 53.355,45.579 L 53.355,69.138 L 52.953,69.482 L 43.91,68.04 M 50.59,81.751 C 48.516,81.751 47.078,80.251 47.078,78.181 C 47.078,76.165 48.516,74.724 50.59,74.724 C 52.723,74.724 54.047,76.165 54.105,78.181 C 54.105,80.251 52.723,81.751 50.59,81.751"
         style="fill:#000000;fill-opacity:1;fill-rule:nonzero;stroke:none"
         id="path16" /><path
         d="M 79.68,60.782 L 79.68,67.525 C 77.777,68.907 74.84,69.482 72.25,69.482 C 66.027,69.482 61.824,66.544 61.766,61.072 C 61.824,56.29 65.684,54.161 70.465,52.72 C 73.055,51.915 76.684,50.587 76.684,46.673 C 76.684,43.736 74.379,41.892 71.328,41.892 C 66.66,41.892 64.07,45.29 62.918,50.185 L 61.246,50.185 L 61.824,42.642 C 63.898,40.798 67.41,39.876 70.809,39.876 C 77.664,39.876 81.582,43.505 81.582,48.4 C 81.582,53.47 78.469,55.775 72.539,57.615 C 70.176,58.365 66.375,59.575 66.375,62.802 C 66.43,65.794 68.68,67.466 71.559,67.466 C 75.648,67.466 77.605,64.298 78.008,60.782 L 79.68,60.782"
         style="fill:#000000;fill-opacity:1;fill-rule:nonzero;stroke:none"
         id="path18" /><path
         d="M 102.406,66.486 L 102.406,68.79 L 94.977,68.79 L 94.977,76.048 L 93.305,76.048 L 89.793,68.79 L 85.414,68.79 L 85.414,66.486 L 89.562,66.486 L 89.562,46.443 C 89.562,40.568 93.938,39.876 95.953,39.876 C 98.891,39.876 101.656,41.372 103.328,42.411 L 102.867,43.618 C 101.484,43.044 100.215,42.872 98.777,42.872 C 96.816,42.872 94.977,44.251 94.977,48.63 L 94.977,66.486 L 102.406,66.486"
         style="fill:#000000;fill-opacity:1;fill-rule:nonzero;stroke:none"
         id="path20" /><path
         d="M 120.016,69.482 C 110.801,69.482 106.25,64.009 106.25,54.677 C 106.25,45.349 110.801,39.876 120.016,39.876 C 129.348,39.876 133.84,45.349 133.84,54.677 C 133.84,64.009 129.348,69.482 120.016,69.482 M 112.242,54.677 C 112.242,62.626 114.773,67.466 120.016,67.466 C 125.375,67.466 127.852,62.626 127.852,54.677 C 127.852,46.732 125.375,41.892 120.016,41.892 C 114.773,41.892 112.242,46.732 112.242,54.677"
         style="fill:#000000;fill-opacity:1;fill-rule:nonzero;stroke:none"
         id="path22" /><path
         d="M 144.277,51.396 C 146.523,51.396 147.848,52.95 147.906,55.025 C 147.906,57.154 146.523,58.767 144.277,58.767 C 142.086,58.767 140.648,57.154 140.648,55.025 C 140.648,52.95 142.086,51.396 144.277,51.396"
         style="fill:#000000;fill-opacity:1;fill-rule:nonzero;stroke:none"
         id="path24" /><path
         d="M 171.5,67.466 C 173.227,67.466 176.105,66.603 176.105,62.626 C 176.105,57.271 173.344,52.95 169.023,52.95 C 165.969,52.95 164.242,55.025 164.242,57.904 C 164.242,61.532 166.027,67.466 171.5,67.466 M 178.238,67.755 C 176.742,68.732 173.918,69.482 171.098,69.482 C 161.648,69.482 158.828,62.974 158.828,58.884 C 158.828,54.622 161.938,52.431 163.664,51.798 L 163.664,51.685 C 161.879,50.935 158.426,49.669 158.426,47.365 C 158.426,45.462 160.152,44.138 162.516,43.044 L 162.516,42.927 C 158.598,42.236 153.645,39.818 153.645,35.036 C 153.645,29.911 159,26.626 166.316,26.626 C 174.09,26.626 180.371,29.911 180.371,36.247 C 180.371,40.568 177.086,43.677 170.289,45.29 C 165.453,46.443 163.32,47.247 163.32,48.861 C 163.32,49.954 164.473,50.763 165.855,51.107 C 167.008,50.935 168.102,50.935 168.965,50.935 C 176.973,50.935 181.406,55.314 181.406,61.243 C 181.406,62.802 180.945,64.24 180.195,65.22 L 185.035,65.911 L 186.938,69.54 L 186.59,70.06 L 178.238,67.755 M 167.582,28.642 C 162.57,28.642 158.941,31.407 158.941,35.556 C 158.941,39.704 162.688,41.661 165.047,42.005 C 168.676,41.49 175.473,39.99 175.473,35.154 C 175.473,30.775 171.902,28.642 167.582,28.642"
         style="fill:#000000;fill-opacity:1;fill-rule:nonzero;stroke:none"
         id="path26" /><path
         d="M 191.547,40.568 C 192.527,44.31 193.621,48.978 194.543,52.318 C 196.617,59.865 199.496,64.818 201.684,64.818 C 203.469,64.818 203.875,63.376 205.715,63.376 C 207.156,63.376 208.422,65.279 208.422,66.947 C 208.48,68.501 207.676,69.482 205.832,69.482 C 202.605,69.482 198.633,65.853 195.52,59.634 L 195.406,59.634 L 198,69.193 L 197.711,69.482 L 187.805,67.868 L 187.457,66.486 L 191.027,66.2 C 192.41,66.083 192.297,65.279 191.891,63.435 L 186.594,39.876 L 191.547,40.568"
         style="fill:#000000;fill-opacity:1;fill-rule:nonzero;stroke:none"
         id="path28" /><path
         d="M 231.484,66.2 C 230.445,61.935 228.375,56.236 225.32,51.626 C 222.094,46.732 218.582,42.872 215.816,42.872 C 213.914,42.872 213.281,44.657 213.281,46.904 C 213.281,53.24 218.926,67.466 227.969,67.466 C 229.352,67.466 230.621,67.005 231.484,66.2 M 232.348,69.021 L 232.059,68.271 C 231.082,68.962 229.41,69.482 227.855,69.482 C 214.145,69.482 207.578,54.333 207.578,46.732 C 207.578,43.275 209.191,39.876 213.109,39.876 C 219.273,39.876 224.629,47.017 227.969,52.892 L 228.086,52.892 L 226.125,46.325 C 224.918,42.236 225.551,39.876 228.66,39.876 C 233.039,39.876 236.266,43.794 238.223,48.169 L 236.84,48.978 C 235.805,46.962 233.27,42.872 231.656,42.872 C 230.504,42.872 230.562,44.197 231.082,46.04 L 237.188,69.021 L 232.348,69.021"
         style="fill:#000000;fill-opacity:1;fill-rule:nonzero;stroke:none"
         id="path30" /><path
         d="M 246.723,40.568 C 248.391,46.443 249.312,49.782 250.523,52.837 C 252.48,57.845 258.125,66.486 262.906,66.486 C 264.637,66.486 265.555,65.22 264.637,61.65 L 260.371,45.521 L 258.875,39.876 L 263.887,40.568 C 265.555,46.443 266.477,49.782 267.977,53.298 C 270.105,58.193 275.348,66.486 280.188,66.486 C 282.086,66.486 282.895,64.931 282.145,62.454 L 277.191,45.521 C 276.156,41.95 277.309,39.876 280.188,39.876 C 284.391,39.876 287.617,43.794 289.574,48.169 L 288.195,48.978 C 287.156,46.962 284.621,42.872 283.008,42.872 C 281.855,42.872 281.914,44.197 282.434,46.04 L 286.867,61.13 C 288.195,65.681 287.445,69.482 282.664,69.482 C 277.48,69.482 272.238,64.7 268.09,57.271 L 267.859,57.271 L 269.012,60.9 C 270.742,66.431 269.59,69.482 265.555,69.482 C 260.258,69.482 254.902,64.529 250.926,57.271 L 250.754,57.271 L 254.383,69.193 L 254.094,69.482 L 243.668,67.868 L 243.324,66.486 L 246.836,66.2 C 248.219,66.083 248.105,65.279 247.645,63.435 L 241.711,39.876 L 246.723,40.568"
         style="fill:#000000;fill-opacity:1;fill-rule:nonzero;stroke:none"
         id="path32" /><path
         d="M 299.258,40.568 C 300.93,46.443 301.852,49.782 303.059,52.837 C 305.02,57.845 310.664,66.486 315.445,66.486 C 317.172,66.486 318.094,65.22 317.172,61.65 L 312.91,45.521 L 311.414,39.876 L 316.422,40.568 C 318.094,46.443 319.016,49.782 320.512,53.298 C 322.645,58.193 327.887,66.486 332.723,66.486 C 334.625,66.486 335.434,64.931 334.684,62.454 L 329.73,45.521 C 328.691,41.95 329.844,39.876 332.723,39.876 C 336.93,39.876 340.156,43.794 342.113,48.169 L 340.73,48.978 C 339.695,46.962 337.16,42.872 335.547,42.872 C 334.395,42.872 334.453,44.197 334.973,46.04 L 339.406,61.13 C 340.73,65.681 339.98,69.482 335.203,69.482 C 330.016,69.482 324.777,64.7 320.629,57.271 L 320.398,57.271 L 321.551,60.9 C 323.277,66.431 322.125,69.482 318.094,69.482 C 312.793,69.482 307.438,64.529 303.465,57.271 L 303.289,57.271 L 306.918,69.193 L 306.633,69.482 L 296.207,67.868 L 295.859,66.486 L 299.375,66.2 C 300.758,66.083 300.641,65.279 300.18,63.435 L 294.246,39.876 L 299.258,40.568"
         style="fill:#000000;fill-opacity:1;fill-rule:nonzero;stroke:none"
         id="path34" /><path
         d="M 368.848,66.2 C 367.809,61.935 365.734,56.236 362.684,51.626 C 359.457,46.732 355.945,42.872 353.18,42.872 C 351.277,42.872 350.645,44.657 350.645,46.904 C 350.645,53.24 356.289,67.466 365.332,67.466 C 366.715,67.466 367.98,67.005 368.848,66.2 M 369.711,69.021 L 369.422,68.271 C 368.441,68.962 366.773,69.482 365.219,69.482 C 351.508,69.482 344.941,54.333 344.941,46.732 C 344.941,43.275 346.555,39.876 350.473,39.876 C 356.637,39.876 361.992,47.017 365.332,52.892 L 365.449,52.892 L 363.488,46.325 C 362.281,42.236 362.914,39.876 366.023,39.876 C 370.402,39.876 373.625,43.794 375.586,48.169 L 374.203,48.978 C 373.164,46.962 370.633,42.872 369.02,42.872 C 367.867,42.872 367.926,44.197 368.441,46.04 L 374.547,69.021 L 369.711,69.021"
         style="fill:#000000;fill-opacity:1;fill-rule:nonzero;stroke:none"
         id="path36" /><path
         d="M 384.371,40.568 C 385.352,44.31 386.445,48.978 387.367,52.318 C 389.441,59.865 392.32,64.818 394.508,64.818 C 396.297,64.818 396.699,63.376 398.543,63.376 C 399.98,63.376 401.25,65.279 401.25,66.947 C 401.305,68.501 400.5,69.482 398.656,69.482 C 395.43,69.482 391.457,65.853 388.348,59.634 L 388.23,59.634 L 390.824,69.193 L 390.535,69.482 L 380.629,67.868 L 380.281,66.486 L 383.852,66.2 C 385.234,66.083 385.121,65.279 384.719,63.435 L 379.418,39.876 L 384.371,40.568"
         style="fill:#000000;fill-opacity:1;fill-rule:nonzero;stroke:none"
         id="path38" /><path
         d="M 214.129,29.415 L 215.887,29.415 L 210.059,10.915 L 208.301,10.915 L 214.129,29.415"
         style="fill:#000000;fill-opacity:1;fill-rule:nonzero;stroke:none"
         id="path40" /><path
         d="M 216.832,13.001 L 216.832,14.169 L 218.656,14.169 L 218.656,28.943 L 216.723,28.943 L 216.723,30.111 L 220.68,30.111 L 220.68,22.611 C 221.055,23.404 221.539,24.001 222.133,24.404 C 222.73,24.806 223.43,25.009 224.219,25.009 C 225.512,25.009 226.457,24.638 227.066,23.896 C 227.676,23.157 227.98,22.001 227.98,20.435 L 227.98,14.169 L 229.781,14.169 L 229.781,13.001 L 224.199,13.001 L 224.199,14.169 L 225.945,14.169 L 225.945,19.798 C 225.945,21.228 225.77,22.2 225.418,22.72 C 225.074,23.247 224.453,23.513 223.559,23.513 C 222.621,23.513 221.906,23.173 221.418,22.49 C 220.926,21.81 220.68,20.814 220.68,19.509 L 220.68,14.169 L 222.438,14.169 L 222.438,13.001 L 216.832,13.001"
         style="fill:#000000;fill-opacity:1;fill-rule:nonzero;stroke:none"
         id="path42" /><path
         d="M 232.609,28.318 C 232.609,28.654 232.73,28.947 232.973,29.197 C 233.219,29.447 233.516,29.572 233.863,29.572 C 234.199,29.572 234.488,29.447 234.73,29.197 C 234.98,28.947 235.105,28.654 235.105,28.318 C 235.105,27.974 234.984,27.681 234.742,27.439 C 234.5,27.197 234.207,27.075 233.863,27.075 C 233.516,27.075 233.219,27.197 232.973,27.439 C 232.73,27.681 232.609,27.974 232.609,28.318 M 235.191,14.169 L 237.105,14.169 L 237.105,13.001 L 231.234,13.001 L 231.234,14.169 L 233.168,14.169 L 233.168,23.513 L 231.234,23.513 L 231.234,24.689 L 235.191,24.689 L 235.191,14.169"
         style="fill:#000000;fill-opacity:1;fill-rule:nonzero;stroke:none"
         id="path44" /><path
         d="M 238.898,13.65 L 238.898,16.376 L 240.062,16.376 C 240.09,15.505 240.363,14.853 240.875,14.419 C 241.395,13.99 242.164,13.771 243.172,13.771 C 244.082,13.771 244.773,13.939 245.25,14.279 C 245.727,14.622 245.965,15.122 245.965,15.775 C 245.965,16.286 245.789,16.7 245.438,17.017 C 245.094,17.329 244.359,17.669 243.238,18.029 L 241.777,18.521 C 240.773,18.845 240.043,19.247 239.59,19.732 C 239.145,20.216 238.918,20.829 238.918,21.579 C 238.918,22.65 239.312,23.486 240.094,24.095 C 240.879,24.704 241.965,25.009 243.352,25.009 C 243.965,25.009 244.613,24.927 245.297,24.767 C 245.977,24.607 246.68,24.368 247.406,24.064 L 247.406,21.513 L 246.242,21.513 C 246.211,22.267 245.949,22.857 245.449,23.282 C 244.953,23.708 244.273,23.919 243.414,23.919 C 242.566,23.919 241.922,23.771 241.48,23.47 C 241.047,23.169 240.832,22.716 240.832,22.118 C 240.832,21.626 240.996,21.228 241.328,20.931 C 241.656,20.634 242.316,20.337 243.305,20.029 L 244.91,19.532 C 246.02,19.189 246.812,18.755 247.297,18.236 C 247.789,17.724 248.035,17.06 248.035,16.247 C 248.035,15.138 247.609,14.267 246.758,13.63 C 245.914,12.997 244.75,12.685 243.262,12.685 C 242.508,12.685 241.77,12.763 241.051,12.927 C 240.332,13.087 239.617,13.329 238.898,13.65"
         style="fill:#000000;fill-opacity:1;fill-rule:nonzero;stroke:none"
         id="path46" /><path
         d="M 251.629,23.513 L 249.848,23.513 L 249.848,24.689 L 251.629,24.689 L 251.629,28.318 L 253.664,28.318 L 253.664,24.689 L 257.465,24.689 L 257.465,23.513 L 253.664,23.513 L 253.664,16.091 C 253.664,15.103 253.758,14.47 253.949,14.189 C 254.137,13.911 254.492,13.771 255.004,13.771 C 255.531,13.771 255.918,13.927 256.156,14.236 C 256.398,14.548 256.527,15.056 256.543,15.751 L 258.07,15.751 C 258.012,14.689 257.723,13.911 257.203,13.419 C 256.684,12.931 255.891,12.685 254.828,12.685 C 253.664,12.685 252.836,12.939 252.355,13.454 C 251.871,13.974 251.629,14.853 251.629,16.091 L 251.629,23.513"
         style="fill:#000000;fill-opacity:1;fill-rule:nonzero;stroke:none"
         id="path48" /><path
         d="M 261.742,29.779 L 268.316,29.779 L 268.316,28.154 L 261.742,28.154 L 261.742,29.779 M 265.031,13.771 C 266.113,13.771 266.934,14.2 267.48,15.06 C 268.039,15.915 268.316,17.181 268.316,18.853 C 268.316,20.521 268.039,21.782 267.48,22.634 C 266.934,23.49 266.113,23.919 265.031,23.919 C 263.945,23.919 263.125,23.49 262.566,22.634 C 262.02,21.782 261.742,20.521 261.742,18.853 C 261.742,17.181 262.023,15.915 262.578,15.06 C 263.137,14.2 263.953,13.771 265.031,13.771 M 265.031,12.685 C 263.328,12.685 261.961,13.243 260.93,14.365 C 259.895,15.493 259.379,16.99 259.379,18.853 C 259.379,20.712 259.891,22.204 260.918,23.325 C 261.953,24.447 263.324,25.009 265.031,25.009 C 266.738,25.009 268.105,24.447 269.133,23.325 C 270.164,22.204 270.68,20.712 270.68,18.853 C 270.68,16.99 270.164,15.493 269.133,14.365 C 268.105,13.243 266.738,12.685 265.031,12.685"
         style="fill:#000000;fill-opacity:1;fill-rule:nonzero;stroke:none"
         id="path50" /><path
         d="M 274.133,15.478 L 275.762,15.478 L 275.762,10.22 L 274.133,10.22 L 274.133,15.478 z"
         style="fill:#000000;fill-opacity:1;fill-rule:nonzero;stroke:none"
         id="path52" /><path
         d="M 280.336,30.099 L 281.961,30.099 L 281.961,24.845 L 280.336,24.845 L 280.336,30.099 z"
         style="fill:#000000;fill-opacity:1;fill-rule:nonzero;stroke:none"
         id="path54" /><path
         d="M 290.219,24.689 L 297.957,24.689 L 297.957,23.513 L 296.023,23.513 L 296.023,13.255 C 296.023,11.575 295.562,10.282 294.637,9.376 C 293.715,8.458 292.398,8.001 290.691,8.001 C 289.922,8.001 289.184,8.072 288.48,8.208 C 287.777,8.349 287.102,8.556 286.457,8.837 L 286.457,11.286 L 287.512,11.286 C 287.645,10.525 287.957,9.966 288.449,9.615 C 288.938,9.263 289.641,9.087 290.559,9.087 C 291.746,9.087 292.613,9.427 293.164,10.099 C 293.723,10.767 294,11.818 294,13.255 L 294,14.825 C 293.605,14.095 293.098,13.552 292.484,13.2 C 291.875,12.857 291.121,12.685 290.219,12.685 C 288.781,12.685 287.605,13.251 286.688,14.388 C 285.781,15.532 285.324,17.021 285.324,18.853 C 285.324,20.47 285.781,21.849 286.688,22.986 C 287.598,24.122 288.773,24.689 290.219,24.689 M 294,19.423 L 294.012,23.513 L 290.844,23.513 C 289.805,23.513 289.016,23.103 288.48,22.282 C 287.953,21.462 287.688,20.318 287.688,18.853 C 287.688,17.24 287.953,16.017 288.48,15.189 C 289.016,14.361 289.805,13.947 290.844,13.947 C 291.871,13.947 292.652,14.314 293.188,15.048 C 293.73,15.786 294,16.861 294,18.267 L 294,19.423"
         style="fill:#000000;fill-opacity:1;fill-rule:nonzero;stroke:none"
         id="path56" /><path
         d="M 299.441,12.982 L 299.441,15.904 L 300.609,15.904 C 300.645,15.325 300.805,14.892 301.09,14.607 C 301.379,14.322 301.793,14.177 302.344,14.177 C 303.34,14.177 304.105,14.525 304.633,15.212 C 305.168,15.9 305.434,16.892 305.434,18.181 L 305.434,23.525 L 303.094,23.525 L 303.094,24.689 L 309.281,24.689 L 309.281,23.525 L 307.457,23.525 L 307.457,14.157 L 309.391,14.157 L 309.391,13.001 L 305.434,13.001 L 305.434,15.079 C 305.039,14.267 304.527,13.661 303.906,13.267 C 303.281,12.876 302.523,12.685 301.629,12.685 C 301.301,12.685 300.953,12.708 300.586,12.759 C 300.227,12.814 299.844,12.884 299.441,12.982"
         style="fill:#000000;fill-opacity:1;fill-rule:nonzero;stroke:none"
         id="path58" /><path
         d="M 318.891,16.673 L 318.891,19.15 L 316.285,19.15 C 315.281,19.15 314.535,18.931 314.043,18.501 C 313.551,18.068 313.305,17.404 313.305,16.509 C 313.305,15.697 313.555,15.052 314.055,14.575 C 314.551,14.099 315.227,13.861 316.078,13.861 C 316.918,13.861 317.598,14.118 318.109,14.642 C 318.629,15.161 318.891,15.837 318.891,16.673 M 320.09,14.65 C 319.48,13.986 318.805,13.49 318.066,13.169 C 317.324,12.845 316.496,12.685 315.582,12.685 C 314.137,12.685 313.02,13.017 312.227,13.685 C 311.445,14.353 311.051,15.294 311.051,16.509 C 311.051,17.72 311.488,18.657 312.359,19.325 C 313.238,19.99 314.473,20.325 316.055,20.325 L 318.891,20.325 L 318.891,21.126 C 318.891,22.005 318.625,22.693 318.098,23.185 C 317.57,23.673 316.84,23.919 315.898,23.919 C 315.051,23.919 314.383,23.736 313.898,23.368 C 313.414,23.009 313.113,22.47 312.996,21.743 L 311.953,21.743 L 311.953,24.107 C 312.656,24.407 313.34,24.63 314,24.779 C 314.664,24.931 315.312,25.009 315.945,25.009 C 316.977,25.009 317.848,24.845 318.551,24.525 C 319.262,24.208 319.816,23.72 320.223,23.064 C 320.762,23.708 321.387,24.193 322.09,24.513 C 322.793,24.845 323.574,25.009 324.434,25.009 C 326.199,25.009 327.555,24.462 328.5,23.368 C 329.445,22.279 329.934,20.697 329.961,18.63 L 321.254,18.63 L 321.254,18.544 C 321.254,16.966 321.547,15.775 322.133,14.97 C 322.727,14.173 323.605,13.771 324.773,13.771 C 325.66,13.771 326.387,14.001 326.949,14.466 C 327.52,14.935 327.922,15.626 328.148,16.544 L 329.766,16.544 C 329.449,15.259 328.855,14.294 327.984,13.65 C 327.109,13.005 325.973,12.685 324.562,12.685 C 323.668,12.685 322.84,12.849 322.078,13.177 C 321.324,13.517 320.66,14.005 320.09,14.65 M 327.586,19.798 C 327.543,21.161 327.254,22.185 326.719,22.876 C 326.191,23.572 325.43,23.919 324.434,23.919 C 323.5,23.919 322.766,23.572 322.223,22.876 C 321.688,22.177 321.363,21.154 321.254,19.798 L 327.586,19.798"
         style="fill:#000000;fill-opacity:1;fill-rule:nonzero;stroke:none"
         id="path60" /><path
         d="M 342.75,22.415 C 343.137,23.271 343.633,23.915 344.23,24.349 C 344.84,24.786 345.547,25.009 346.355,25.009 C 347.578,25.009 348.492,24.626 349.09,23.865 C 349.691,23.111 349.992,21.966 349.992,20.435 L 349.992,14.169 L 351.816,14.169 L 351.816,13.001 L 346.211,13.001 L 346.211,14.169 L 347.969,14.169 L 347.969,20.204 C 347.969,21.4 347.793,22.247 347.441,22.755 C 347.09,23.259 346.508,23.513 345.695,23.513 C 344.793,23.513 344.105,23.173 343.629,22.49 C 343.16,21.81 342.926,20.814 342.926,19.509 L 342.926,14.169 L 344.684,14.169 L 344.684,13.001 L 339.141,13.001 L 339.141,14.169 L 340.902,14.169 L 340.902,20.279 C 340.902,21.447 340.727,22.275 340.375,22.767 C 340.023,23.263 339.438,23.513 338.625,23.513 C 337.723,23.513 337.035,23.173 336.559,22.49 C 336.09,21.81 335.855,20.814 335.855,19.509 L 335.855,14.169 L 337.613,14.169 L 337.613,13.001 L 332.008,13.001 L 332.008,14.169 L 333.832,14.169 L 333.832,23.536 L 331.898,23.536 L 331.898,24.689 L 335.855,24.689 L 335.855,22.611 C 336.23,23.388 336.703,23.982 337.285,24.392 C 337.863,24.802 338.52,25.009 339.254,25.009 C 340.16,25.009 340.918,24.782 341.527,24.325 C 342.137,23.88 342.543,23.243 342.75,22.415"
         style="fill:#000000;fill-opacity:1;fill-rule:nonzero;stroke:none"
         id="path62" /><path
         d="M 354.578,14.146 C 354.578,14.556 354.719,14.904 354.996,15.189 C 355.273,15.478 355.621,15.618 356.039,15.618 C 356.441,15.618 356.789,15.478 357.074,15.189 C 357.359,14.904 357.504,14.556 357.504,14.146 C 357.504,13.743 357.359,13.4 357.074,13.111 C 356.789,12.825 356.441,12.685 356.039,12.685 C 355.621,12.685 355.273,12.822 354.996,13.103 C 354.719,13.388 354.578,13.736 354.578,14.146"
         style="fill:#000000;fill-opacity:1;fill-rule:nonzero;stroke:none"
         id="path64" /><path
         d="M 360.746,19.06 L 369.465,19.06 L 369.465,19.15 C 369.465,20.724 369.168,21.915 368.574,22.72 C 367.98,23.521 367.105,23.919 365.945,23.919 C 365.059,23.919 364.328,23.689 363.758,23.228 C 363.195,22.759 362.797,22.064 362.57,21.15 L 360.945,21.15 C 361.266,22.431 361.859,23.396 362.723,24.04 C 363.598,24.685 364.738,25.009 366.156,25.009 C 367.863,25.009 369.234,24.443 370.266,23.314 C 371.309,22.193 371.828,20.7 371.828,18.841 C 371.828,16.993 371.316,15.505 370.301,14.376 C 369.281,13.247 367.941,12.685 366.285,12.685 C 364.52,12.685 363.164,13.228 362.219,14.322 C 361.273,15.407 360.781,16.986 360.746,19.06 M 363.133,17.896 C 363.176,16.532 363.465,15.501 364,14.806 C 364.527,14.115 365.289,13.771 366.285,13.771 C 367.219,13.771 367.949,14.118 368.484,14.818 C 369.02,15.513 369.348,16.54 369.465,17.896 L 363.133,17.896"
         style="fill:#000000;fill-opacity:1;fill-rule:nonzero;stroke:none"
         id="path66" /><path
         d="M 383.711,24.712 L 383.711,21.786 L 382.547,21.786 C 382.512,22.365 382.348,22.798 382.062,23.083 C 381.777,23.368 381.359,23.513 380.809,23.513 C 379.812,23.513 379.047,23.169 378.512,22.478 C 377.984,21.79 377.719,20.802 377.719,19.509 L 377.719,14.169 L 380.062,14.169 L 380.062,13.001 L 373.871,13.001 L 373.871,14.169 L 375.699,14.169 L 375.699,23.536 L 373.762,23.536 L 373.762,24.689 L 377.719,24.689 L 377.719,22.611 C 378.117,23.423 378.625,24.025 379.25,24.415 C 379.871,24.81 380.629,25.009 381.523,25.009 C 381.855,25.009 382.199,24.982 382.559,24.931 C 382.926,24.88 383.309,24.806 383.711,24.712"
         style="fill:#000000;fill-opacity:1;fill-rule:nonzero;stroke:none"
         id="path68" /><path
         d="M 389.551,29.415 L 391.309,29.415 L 385.484,10.915 L 383.723,10.915 L 389.551,29.415"
         style="fill:#000000;fill-opacity:1;fill-rule:nonzero;stroke:none"
         id="path70" /></g></g></svg>