<?xml version="1.0" encoding="UTF-8" standalone="no"?>
<!-- Created with Inkscape (http://www.inkscape.org/) -->

<svg
   xmlns:dc="http://purl.org/dc/elements/1.1/"
   xmlns:cc="http://creativecommons.org/ns#"
   xmlns:rdf="http://www.w3.org/1999/02/22-rdf-syntax-ns#"
   xmlns:svg="http://www.w3.org/2000/svg"
   xmlns="http://www.w3.org/2000/svg"
   xmlns:sodipodi="http://sodipodi.sourceforge.net/DTD/sodipodi-0.dtd"
   xmlns:inkscape="http://www.inkscape.org/namespaces/inkscape"
   width="120"
   height="120"
   id="svg3085"
   version="1.1"
   inkscape:version="0.48.4 r9939"
   sodipodi:docname="New document 4">
  <defs
     id="defs3087" />
  <sodipodi:namedview
     id="base"
     pagecolor="#ffffff"
     bordercolor="#666666"
     borderopacity="1.0"
     inkscape:pageopacity="0.0"
     inkscape:pageshadow="2"
     inkscape:zoom="1.4"
     inkscape:cx="-40.895118"
     inkscape:cy="38.474473"
     inkscape:document-units="px"
     inkscape:current-layer="layer1"
     showgrid="false"
     fit-margin-top="10"
     fit-margin-left="10"
     fit-margin-right="10"
     fit-margin-bottom="10"
     inkscape:window-width="1360"
     inkscape:window-height="715"
     inkscape:window-x="0"
     inkscape:window-y="0"
     inkscape:window-maximized="0" />
  <metadata
     id="metadata3090">
    <rdf:RDF>
      <cc:Work
         rdf:about="">
        <dc:format>image/svg+xml</dc:format>
        <dc:type
           rdf:resource="http://purl.org/dc/dcmitype/StillImage" />
        <dc:title></dc:title>
      </cc:Work>
    </rdf:RDF>
  </metadata>
  <g
     inkscape:label="Layer 1"
     inkscape:groupmode="layer"
     id="layer1"
     transform="translate(-297.30661,-354.93004)">
    <g
       id="g3108"
       transform="translate(0.16375,-14.575)">
      <path
         inkscape:connector-curvature="0"
         d="M 343.01911,422.80629 C 343.01911,415.53504 339.05911,411.36004 332.36036,411.36004 C 327.10661,411.36004 323.86411,413.80629 319.33286,416.83379 L 319.33286,394.51004 L 318.82536,394.08004 L 307.59411,395.88129 L 307.59411,397.67879 L 310.32911,398.04004 C 312.20411,398.32879 312.63411,398.69004 312.63411,401.28254 L 312.63411,441.23879 C 312.70661,444.76879 312.34536,445.05629 307.30661,445.41754 L 307.30661,447.50254 L 324.80161,447.50254 L 324.80161,445.41754 C 319.83536,445.05629 319.40161,444.76879 319.40161,441.23879 L 319.40161,424.39254 C 319.40161,422.59129 319.47411,421.58504 320.05036,420.50629 C 321.56411,417.62504 324.87536,415.24754 328.68786,415.24754 C 333.58536,415.24754 336.25161,417.98629 336.25161,424.24629 L 336.25161,441.23879 C 336.25161,444.76879 335.89036,445.05629 330.85161,445.41754 L 330.85161,447.50254 L 348.42036,447.50254 L 348.42036,445.41754 C 343.44911,445.05629 343.01911,444.76879 343.01911,441.23879 L 343.01911,422.80629"
         style="fill:#000000;fill-opacity:1;fill-rule:nonzero;stroke:none"
         id="path3066" />
      <path
         inkscape:connector-curvature="0"
         d="M 357.65286,433.96754 C 360.46036,433.96754 362.11661,432.02504 362.18911,429.43129 C 362.18911,426.77004 360.46036,424.75379 357.65286,424.75379 C 354.91411,424.75379 353.11661,426.77004 353.11661,429.43129 C 353.11661,432.02504 354.91411,433.96754 357.65286,433.96754"
         style="fill:#000000;fill-opacity:1;fill-rule:nonzero;stroke:none"
         id="path3068" />
      <path
         inkscape:connector-curvature="0"
         d="M 387.68161,413.88004 C 389.84036,413.88004 393.43786,414.95879 393.43786,419.93004 C 393.43786,426.62379 389.98661,432.02504 384.58536,432.02504 C 380.76786,432.02504 378.60911,429.43129 378.60911,425.83254 C 378.60911,421.29754 380.84036,413.88004 387.68161,413.88004 M 396.10411,413.51879 C 394.23411,412.29754 390.70411,411.36004 387.17911,411.36004 C 375.36661,411.36004 371.84161,419.49504 371.84161,424.60754 C 371.84161,429.93504 375.72911,432.67379 377.88661,433.46504 L 377.88661,433.60629 C 375.65536,434.54379 371.33911,436.12629 371.33911,439.00629 C 371.33911,441.38504 373.49661,443.04004 376.45161,444.40754 L 376.45161,444.55379 C 371.55411,445.41754 365.36286,448.44004 365.36286,454.41754 C 365.36286,460.82379 372.05661,464.93004 381.20161,464.93004 C 390.91911,464.93004 398.77036,460.82379 398.77036,452.90379 C 398.77036,447.50254 394.66411,443.61629 386.16786,441.60004 C 380.12286,440.15879 377.45661,439.15379 377.45661,437.13629 C 377.45661,435.77004 378.89786,434.75879 380.62536,434.32879 C 382.06661,434.54379 383.43411,434.54379 384.51286,434.54379 C 394.52286,434.54379 400.06411,429.07004 400.06411,421.65879 C 400.06411,419.71004 399.48786,417.91254 398.55036,416.68754 L 404.60036,415.82379 L 406.97911,411.28754 L 406.54411,410.63754 L 396.10411,413.51879 M 382.78411,462.41004 C 376.51911,462.41004 371.98286,458.95379 371.98286,453.76754 C 371.98286,448.58254 376.66661,446.13629 379.61536,445.70629 C 384.15161,446.35004 392.64786,448.22504 392.64786,454.27004 C 392.64786,459.74379 388.18411,462.41004 382.78411,462.41004"
         style="fill:#000000;fill-opacity:1;fill-rule:nonzero;stroke:none"
         id="path3070" />
    </g>
  </g>
</svg>
