<?xml version="1.0" encoding="UTF-8" standalone="no"?>
<!-- Generator: Adobe Illustrator 16.0.0, SVG Export Plug-In . SVG Version: 6.00 Build 0)  -->

<svg
   xmlns:dc="http://purl.org/dc/elements/1.1/"
   xmlns:cc="http://creativecommons.org/ns#"
   xmlns:rdf="http://www.w3.org/1999/02/22-rdf-syntax-ns#"
   xmlns:svg="http://www.w3.org/2000/svg"
   xmlns="http://www.w3.org/2000/svg"
   xmlns:sodipodi="http://sodipodi.sourceforge.net/DTD/sodipodi-0.dtd"
   xmlns:inkscape="http://www.inkscape.org/namespaces/inkscape"
   version="1.1"
   id="Layer_1"
   x="0px"
   y="0px"
   width="180"
   height="180"
   viewBox="0 0 180 180.00001"
   enable-background="new 0 0 400 400"
   xml:space="preserve"
   inkscape:version="0.48.4 r9939"
   sodipodi:docname="favicon.svg"
   inkscape:export-filename="/home/pivarski/diana/histogrammar-docs/_landing/favicon.png"
   inkscape:export-xdpi="16"
   inkscape:export-ydpi="16"><metadata
     id="metadata3100"><rdf:RDF><cc:Work
         rdf:about=""><dc:format>image/svg+xml</dc:format><dc:type
           rdf:resource="http://purl.org/dc/dcmitype/StillImage" /><dc:title></dc:title></cc:Work></rdf:RDF></metadata><defs
     id="defs3098" /><sodipodi:namedview
     pagecolor="#ffffff"
     bordercolor="#666666"
     borderopacity="1"
     objecttolerance="10"
     gridtolerance="10"
     guidetolerance="10"
     inkscape:pageopacity="0"
     inkscape:pageshadow="2"
     inkscape:window-width="1360"
     inkscape:window-height="715"
     id="namedview3096"
     showgrid="false"
     fit-margin-top="0"
     fit-margin-left="0"
     fit-margin-right="0"
     fit-margin-bottom="0"
     inkscape:zoom="0.59"
     inkscape:cx="-257.28471"
     inkscape:cy="71.337"
     inkscape:window-x="0"
     inkscape:window-y="0"
     inkscape:window-maximized="0"
     inkscape:current-layer="Layer_1" /><g
     id="g3092"
     transform="translate(-109.9995,-110)"><path
       d="M 288.477,162.646 C 288.184,165.869 287.525,169.068 286.499,172.241 C 285.474,175.416 284.009,178.263 282.104,180.781 C 280.199,183.299 277.904,185.349 275.219,186.933 C 272.531,188.517 269.382,189.307 265.771,189.307 C 262.548,189.307 259.692,188.746 257.202,187.622 C 254.712,186.5 252.61,184.985 250.903,183.081 C 249.193,181.177 247.923,178.979 247.094,176.489 C 246.263,173.999 245.849,171.339 245.849,168.506 V 149.463 L 219.775,167.041 C 223.386,176.515 225.195,187.013 225.195,198.535 C 225.195,209.961 223.657,220.167 220.581,229.15 C 217.505,238.136 213.206,245.754 207.69,252.002 C 202.171,258.253 195.605,263.039 187.988,266.357 C 180.371,269.675 172.021,271.337 162.939,271.337 C 158.446,271.337 153.392,270.531 147.778,268.92 C 142.161,267.309 136.865,264.796 131.884,261.376 C 126.904,257.959 122.703,253.517 119.286,248.046 C 115.867,242.578 114.159,235.939 114.159,228.124 L 193.554,174.218 C 190.624,170.116 187.424,166.699 183.959,163.964 C 180.491,161.231 177.023,159.057 173.559,157.445 C 170.091,155.834 166.77,154.687 163.598,154.003 C 160.423,153.321 157.713,152.978 155.468,152.978 C 151.169,152.882 147.141,153.344 143.383,154.37 C 139.622,155.395 136.132,157.13 132.909,159.57 C 129.686,162.012 126.683,165.308 123.9,169.458 C 121.117,173.61 118.503,178.76 116.063,184.912 L 111.522,182.129 C 112.497,175.587 114.475,169.117 117.455,162.72 C 120.433,156.325 124.289,150.587 129.027,145.508 C 133.762,140.431 139.281,136.353 145.58,133.277 C 151.879,130.201 158.933,128.663 166.747,128.663 C 177.097,128.663 186.57,131.332 195.165,136.669 C 203.757,142.006 210.74,149.571 216.112,159.362 L 248.632,137.035 L 254.491,140.267 V 163.183 C 254.491,165.241 254.637,167.321 254.93,169.427 C 255.223,171.533 255.758,173.444 256.541,175.156 C 257.321,176.87 258.468,178.289 259.983,179.416 C 261.496,180.542 263.473,181.105 265.916,181.105 C 268.454,181.105 270.626,180.592 272.435,179.567 C 274.241,178.542 275.779,177.077 277.049,175.172 C 278.317,173.268 279.393,170.997 280.272,168.36 C 281.151,165.723 281.979,162.746 282.762,159.424 L 288.477,162.646 z M 204.541,214.355 C 204.541,207.617 203.93,201.563 202.71,196.191 C 201.487,190.821 199.901,186.036 197.949,181.836 L 136.426,223.438 C 136.426,229.004 137.085,233.791 138.404,237.793 C 139.722,241.799 141.429,245.19 143.531,247.974 C 145.63,250.757 147.973,253.004 150.562,254.712 C 153.148,256.422 155.664,257.74 158.106,258.667 C 160.545,259.597 162.768,260.205 164.771,260.498 C 166.771,260.791 168.261,260.937 169.239,260.937 C 173.048,260.937 177.051,260.157 181.251,258.593 C 185.448,257.032 189.257,254.418 192.677,250.756 C 196.094,247.094 198.925,242.31 201.173,236.401 C 203.417,230.494 204.541,223.145 204.541,214.355 z"
       id="path3094"
       inkscape:connector-curvature="0" /></g></svg>